<svg xmlns="http://www.w3.org/2000/svg" viewBox="0 0 800 520">
  <defs>
    <linearGradient id="bg-bbg" x1="0" y1="0" x2="1" y2="1">
      <stop offset="0%" stop-color="#fff0ec"/>
      <stop offset="100%" stop-color="#ffb8a0"/>
    </linearGradient>
  </defs>
  <rect width="800" height="520" rx="36" fill="url(#bg-bbg)"/>
  <!-- bowl shadow -->
  <ellipse cx="400" cy="382" rx="196" ry="50" fill="#800010" opacity="0.18"/>
  <!-- bowl -->
  <ellipse cx="400" cy="360" rx="192" ry="66" fill="#e4e0d8"/>
  <ellipse cx="400" cy="330" rx="182" ry="46" fill="#f0ece4"/>
  <!-- red sauce noodles -->
  <ellipse cx="400" cy="320" rx="170" ry="37" fill="#c82818"/>
  <!-- noodle swirls (wavy lines) -->
  <path d="M278 308 Q300 294 322 308 Q344 322 366 308 Q388 294 410 308 Q432 322 454 308 Q476 294 498 308 Q520 322 528 316" stroke="#f0e8d8" stroke-width="9" fill="none" stroke-linecap="round" opacity="0.9"/>
  <path d="M285 322 Q307 308 329 322 Q351 336 373 322 Q395 308 417 322 Q439 336 461 322 Q483 308 505 318" stroke="#ece0c8" stroke-width="8" fill="none" stroke-linecap="round" opacity="0.85"/>
  <path d="M290 334 Q312 322 334 334 Q356 346 378 334 Q400 322 422 334 Q444 346 460 338" stroke="#f0e8d8" stroke-width="7" fill="none" stroke-linecap="round" opacity="0.75"/>
  <!-- cucumber slices (green ovals) -->
  <ellipse cx="330" cy="294" rx="20" ry="12" fill="#60b840" transform="rotate(-20 330 294)"/>
  <circle cx="330" cy="294" r="5" fill="#e8f8e0" opacity="0.6"/>
  <ellipse cx="430" cy="290" rx="18" ry="11" fill="#58aa38" transform="rotate(15 430 290)"/>
  <circle cx="430" cy="290" r="4" fill="#e8f8e0" opacity="0.55"/>
  <ellipse cx="375" cy="282" rx="16" ry="10" fill="#60b840" transform="rotate(-8 375 282)"/>
  <circle cx="375" cy="282" r="4" fill="#e8f8e0" opacity="0.5"/>
  <!-- sesame seeds -->
  <circle cx="356" cy="310" r="3" fill="#d8b020" opacity="0.7"/>
  <circle cx="400" cy="306" r="3" fill="#d8b020" opacity="0.65"/>
  <circle cx="448" cy="312" r="3" fill="#d8b020" opacity="0.68"/>
  <!-- kimchi topping hint -->
  <path d="M460 298 L476 314 L444 314 Z" fill="#d81818" opacity="0.7"/>
  <!-- egg top (boiled egg half) -->
  <ellipse cx="310" cy="304" rx="22" ry="14" fill="#fffce0"/>
  <circle cx="310" cy="302" r="8" fill="#f8c020"/>
  <text x="64" y="108" font-size="38" font-weight="700" fill="#9a1810" font-family="sans-serif">비빔국수</text>
  <text x="64" y="156" font-size="21" fill="#7a2818" font-family="sans-serif">BIBIM GUKSU</text>
</svg>
