<svg xmlns="http://www.w3.org/2000/svg" viewBox="0 0 800 520">
  <defs>
    <linearGradient id="bg-recipebeoseotbokkeumsvg" x1="0" y1="0" x2="1" y2="1">
      <stop offset="0%" stop-color="#f8f3ea"/>
      <stop offset="100%" stop-color="#e8d8be"/>
    </linearGradient>
  </defs>
  <rect width="800" height="520" rx="36" fill="url(#bg-recipebeoseotbokkeumsvg)"/>

  <ellipse cx="400" cy="378" rx="232" ry="60" fill="#2f221b" opacity="0.2"/>
  <ellipse cx="400" cy="344" rx="222" ry="86" fill="#4d382e"/>
  <ellipse cx="400" cy="322" rx="196" ry="70" fill="#f7f2ea"/>
  <ellipse cx="400" cy="314" rx="176" ry="56" fill="#9a6c4a"/>
  <path d="M316 308 Q 330 294 344 308 Z" fill="#cda983"/><rect x="326" y="308" width="8" height="9" rx="2" fill="#f1dfc9"/>
  <path d="M366 318 Q 380 304 394 318 Z" fill="#cda983"/><rect x="376" y="318" width="8" height="9" rx="2" fill="#f1dfc9"/>
  <rect x="423" y="300" width="24" height="8" rx="4" fill="#6db06a"/>
  <circle cx="477" cy="308" r="2" fill="#f7e8cc"/><circle cx="488" cy="312" r="2" fill="#f7e8cc"/>
  <text x="64" y="108" font-size="44" font-weight="700" fill="#7f3b2b" font-family="sans-serif">버섯볶음</text>
  <text x="64" y="154" font-size="23" fill="#7a6056" font-family="sans-serif">BEOSEOT BOKKEUM</text>
</svg>
