<svg xmlns="http://www.w3.org/2000/svg" viewBox="0 0 800 520">
  <defs>
    <linearGradient id="bg-recipenakjibokkeumsvg" x1="0" y1="0" x2="1" y2="1">
      <stop offset="0%" stop-color="#fff0ea"/>
      <stop offset="100%" stop-color="#ffc7bb"/>
    </linearGradient>
  </defs>
  <rect width="800" height="520" rx="36" fill="url(#bg-recipenakjibokkeumsvg)"/>

  <ellipse cx="400" cy="378" rx="232" ry="60" fill="#2f221b" opacity="0.2"/>
  <ellipse cx="400" cy="344" rx="222" ry="86" fill="#4d382e"/>
  <ellipse cx="400" cy="322" rx="196" ry="70" fill="#f7f2ea"/>
  <ellipse cx="400" cy="314" rx="176" ry="56" fill="#c73636"/>
  <circle cx="330" cy="304" r="10" fill="#d46b67"/><path d="M320 310 q -6 10 -12 14 M327 312 q -2 10 -5 15 M334 312 q 2 10 5 15 M340 310 q 6 10 12 14" stroke="#d46b67" stroke-width="3" fill="none" stroke-linecap="round"/>
  <path d="M368 320 Q 380 306 392 320 Q 380 328 368 320" fill="#dc5144"/>
  <rect x="423" y="300" width="24" height="8" rx="4" fill="#6db06a"/>
  <circle cx="477" cy="308" r="2" fill="#f7e8cc"/><circle cx="488" cy="312" r="2" fill="#f7e8cc"/>
  <text x="64" y="108" font-size="44" font-weight="700" fill="#7f3b2b" font-family="sans-serif">낙지볶음</text>
  <text x="64" y="154" font-size="23" fill="#7a6056" font-family="sans-serif">NAKJI BOKKEUM</text>
</svg>
