<svg xmlns="http://www.w3.org/2000/svg" viewBox="0 0 800 520">
  <defs>
    <linearGradient id="bg-smg" x1="0" y1="0" x2="1" y2="1">
      <stop offset="0%" stop-color="#f4f8ff"/>
      <stop offset="100%" stop-color="#cce0ff"/>
    </linearGradient>
  </defs>
  <rect width="800" height="520" rx="36" fill="url(#bg-smg)"/>
  <!-- bowl shadow -->
  <ellipse cx="400" cy="382" rx="195" ry="50" fill="#506080" opacity="0.15"/>
  <!-- bowl -->
  <ellipse cx="400" cy="360" rx="192" ry="68" fill="#e0dcd8"/>
  <ellipse cx="400" cy="330" rx="182" ry="46" fill="#f0ece8"/>
  <!-- clear broth -->
  <ellipse cx="400" cy="320" rx="168" ry="36" fill="#e8f0f8" opacity="0.9"/>
  <!-- daikon (mu) white cubes -->
  <rect x="328" y="296" width="44" height="34" rx="8" fill="#f8f8f0" stroke="#d8d8c8" stroke-width="2"/>
  <rect x="382" y="290" width="40" height="32" rx="8" fill="#fffff4" stroke="#d8d8c8" stroke-width="2"/>
  <rect x="432" y="298" width="36" height="30" rx="7" fill="#f8f8f0" stroke="#d8d8c8" stroke-width="2"/>
  <!-- beef pieces -->
  <ellipse cx="360" cy="320" rx="22" ry="10" fill="#c87848" opacity="0.85" transform="rotate(-10 360 320)"/>
  <ellipse cx="440" cy="316" rx="20" ry="9" fill="#b86838" opacity="0.85" transform="rotate(12 440 316)"/>
  <ellipse cx="396" cy="318" rx="18" ry="8" fill="#c07040" opacity="0.8" transform="rotate(-6 396 318)"/>
  <!-- scallion rings -->
  <circle cx="343" cy="304" r="5" fill="none" stroke="#6a9050" stroke-width="3" opacity="0.8"/>
  <circle cx="463" cy="306" r="4" fill="none" stroke="#6a9050" stroke-width="3" opacity="0.75"/>
  <circle cx="404" cy="296" r="4" fill="none" stroke="#6a9050" stroke-width="2.5" opacity="0.7"/>
  <!-- light steam -->
  <path d="M370 275 Q363 262 370 249 Q377 236 370 223" stroke="#a0c0e0" stroke-width="3.5" fill="none" opacity="0.4" stroke-linecap="round"/>
  <path d="M415 270 Q408 257 415 244 Q422 231 415 218" stroke="#a0c0e0" stroke-width="3.5" fill="none" opacity="0.35" stroke-linecap="round"/>
  <text x="64" y="108" font-size="38" font-weight="700" fill="#405880" font-family="sans-serif">소고기무국</text>
  <text x="64" y="156" font-size="22" fill="#5a6878" font-family="sans-serif">SOEGOGI MUGUK</text>
</svg>
